<svg xmlns:dc="http://purl.org/dc/elements/1.1/" xmlns:cc="http://creativecommons.org/ns#" xmlns:rdf="http://www.w3.org/1999/02/22-rdf-syntax-ns#" xmlns:svg="http://www.w3.org/2000/svg" xmlns="http://www.w3.org/2000/svg" version="1.1" width="32" height="32" viewBox="0 0 612 612" id="Capa_1" xml:space="preserve">
  <metadata id="metadata4003">
    <rdf:RDF>
      <cc:Work rdf:about="">
        <dc:format>image/svg+xml</dc:format>
        <dc:type rdf:resource="http://purl.org/dc/dcmitype/StillImage"/>
        <dc:title/>
      </cc:Work>
    </rdf:RDF>
  </metadata>
  <defs id="defs4001"/>
  <g id="g3962" style="fill:#dddddd;fill-opacity:0.81568627">
    <g id="communication_-_bubble_chat_talk_conversation_1_" style="fill:#dddddd;fill-opacity:0.81568627">
      <g id="g3965" style="fill:#dddddd;fill-opacity:0.81568627">
        <path d="M 306 0 C 137 0 0 119.9 0 267.8 0 352.2 44.9 427.5 114.8 476.6 V 612 l 156.7 -78.3 c 11.4 1.1 22.9 1.8 34.6 1.8 169 0 306 -119.9 306 -267.8 C 612 119.9 475 0 306 0 z m 0 497.2 c -17.5 0 -34.6 -1.5 -51.2 -4.3 L 267.8 497.3 153 554.6 V 459 l 14.2 4.7 C 90 423.5 38.2 350.9 38.2 267.8 38.2 141 158.1 38.2 306 38.2 c 147.9 0 267.8 102.7 267.8 229.5 0 126.8 -119.9 229.5 -267.8 229.5 z" id="path3967" style="fill:#dddddd;fill-opacity:0.81568627"/>
      </g>
    </g>
  </g>
  <g id="g3969"/>
  <g id="g3971"/>
  <g id="g3973"/>
  <g id="g3975"/>
  <g id="g3977"/>
  <g id="g3979"/>
  <g id="g3981"/>
  <g id="g3983"/>
  <g id="g3985"/>
  <g id="g3987"/>
  <g id="g3989"/>
  <g id="g3991"/>
  <g id="g3993"/>
  <g id="g3995"/>
  <g id="g3997"/>
</svg>
